<?xml version="1.0" standalone="no"?>
<!DOCTYPE svg PUBLIC "-//W3C//DTD SVG 20010904//EN" "http://www.w3.org/TR/2001/REC-SVG-20010904/DTD/svg10.dtd">
<!-- Created using Krita: https://krita.org -->
<svg xmlns="http://www.w3.org/2000/svg" 
    xmlns:xlink="http://www.w3.org/1999/xlink"
    xmlns:krita="http://krita.org/namespaces/svg/krita"
    xmlns:sodipodi="http://sodipodi.sourceforge.net/DTD/sodipodi-0.dtd"
    width="737.28pt"
    height="737.28pt"
    viewBox="0 0 737.28 737.28">
<defs>
  <linearGradient id="gradient0" gradientUnits="objectBoundingBox" x1="0" y1="0" x2="1" y2="1" spreadMethod="pad">
   <stop stop-color="#cf9b39" offset="0" stop-opacity="1"/>
   <stop stop-color="#cf9b39" offset="1" stop-opacity="1"/>
  </linearGradient>
  <linearGradient id="gradient1" gradientUnits="objectBoundingBox" x1="0" y1="0" x2="1" y2="1" spreadMethod="pad">
   <stop stop-color="#760500" offset="0" stop-opacity="1"/>
   <stop stop-color="#760500" offset="1" stop-opacity="1"/>
  </linearGradient>
  <linearGradient id="gradient2" gradientUnits="objectBoundingBox" x1="0" y1="0" x2="1" y2="1" spreadMethod="pad">
   <stop stop-color="#440200" offset="0" stop-opacity="1"/>
   <stop stop-color="#440200" offset="1" stop-opacity="1"/>
  </linearGradient>
  <linearGradient id="gradient3" gradientUnits="objectBoundingBox" x1="0" y1="0" x2="1" y2="1" spreadMethod="pad">
   <stop stop-color="#760500" offset="0" stop-opacity="1"/>
   <stop stop-color="#760500" offset="1" stop-opacity="1"/>
  </linearGradient>
  <linearGradient id="gradient4" gradientUnits="objectBoundingBox" x1="0" y1="0" x2="1" y2="1" spreadMethod="pad">
   <stop stop-color="#879698" offset="0" stop-opacity="1"/>
   <stop stop-color="#879698" offset="1" stop-opacity="1"/>
  </linearGradient>
  <linearGradient id="gradient5" gradientUnits="objectBoundingBox" x1="0" y1="0" x2="1" y2="1" spreadMethod="pad">
   <stop stop-color="#e5eeef" offset="0" stop-opacity="1"/>
   <stop stop-color="#e5eeef" offset="1" stop-opacity="1"/>
  </linearGradient>
  <linearGradient id="gradient6" gradientUnits="objectBoundingBox" x1="0" y1="0" x2="1" y2="1" spreadMethod="pad">
   <stop stop-color="#760500" offset="0" stop-opacity="1"/>
   <stop stop-color="#760500" offset="1" stop-opacity="1"/>
  </linearGradient>
 </defs>
<path id="shape0" transform="matrix(1.26275389712293 0 0 1.26275389712293 24.8302660179829 91.8352535398283)" fill="url(#gradient0)" fill-rule="evenodd" stroke="url(#gradient1)" stroke-width="18" stroke-linecap="square" stroke-linejoin="bevel" d="M1.0397 80.5476C3.73166 69.1565 109.604 36.706 126.32 42.5676C137.988 46.6592 129.687 114.267 146.48 124.648C153.75 129.142 206.176 113.142 215.6 96.5676C224.631 80.6844 209.704 6.96625 213.8 5.48758C240.266 -4.06632 322.482 0.802552 329.36 5.48758C337.494 11.0279 322.916 78.2332 328.82 96.5676C332.456 107.86 391.974 134.357 399.56 124.288C406.852 114.608 407.626 69.4545 416.84 42.2076C419.489 34.3733 481.234 47.7685 541.58 78.9276C554.073 85.3786 496.708 421.027 484.52 446.488C478.663 458.722 329.143 412.451 271.4 412.648C213.656 412.844 76.1366 450.261 62.0597 448.288C49.4417 446.518 -8.4191 120.573 1.0397 80.5476Z" sodipodi:nodetypes="csssssssssszss"/><path id="shape1" transform="matrix(1.26275389712293 0 0 1.26275389712293 279.002105369887 371.965205853109)" fill="url(#gradient2)" fill-rule="evenodd" stroke="url(#gradient3)" stroke-width="18" stroke-linecap="square" stroke-linejoin="bevel" d="M12.5159 194.407C1.08245 123.852 -2.51755 79.6916 1.71595 61.9271C8.45123 33.6646 36.8276 0.530903 70.1159 0.00709811C103.404 -0.516706 131.291 28.0258 137.796 60.4871C139.896 70.9665 137.016 116.086 129.156 195.847" sodipodi:nodetypes="cszsc"/><path id="shape2" transform="matrix(1.26275389712293 0 0 1.26275389712293 278.895944028389 612.863663790758)" fill="none" stroke="#760500" stroke-width="13.9392" stroke-linecap="square" stroke-linejoin="bevel" d="M0 6.87476C16.0402 1.96569 39.3202 -0.314315 69.84 0.0347615C99.8037 0.377476 123.804 3.13748 141.84 8.31476" sodipodi:nodetypes="csc"/><path id="shape01" transform="matrix(0.658142034103578 0.0553224042796328 -0.0553224042796328 0.658142034103576 497.893563043546 328.323818323995)" fill="#c9d2d9" fill-rule="evenodd" stroke="#c9d2d9" stroke-width="10.1592" stroke-linecap="square" stroke-linejoin="bevel" d="M1.37768 0.431646C16.1786 0.431646 22.2227 22.355 46.1977 6.37164C49.4134 4.22786 54.7293 -2.48511 56.4577 0.971646C59.458 6.97238 55.0103 16.4369 58.0777 22.5716C76.0941 58.6046 77.7641 98.4181 105.058 125.712C106.644 127.298 86.5051 170.088 82.3777 172.152C41.5479 192.567 16.7234 119.683 3.53768 93.3116C-2.8638 80.5087 1.37768 51.59 1.37768 37.6916" sodipodi:nodetypes="cccccccc"/><path id="shape011" transform="matrix(0.601407810724861 0.15538124159125 -0.15538124159125 0.601407810724859 503.136848723019 300.378157322627)" fill="url(#gradient4)" stroke="#000000" stroke-width="16.1352" stroke-linecap="square" stroke-linejoin="bevel" d="M148.681 132.465C158.533 58.0183 141.613 7.85825 140.041 1.42524C138.071 -6.64057 127.683 21.8514 101.161 28.7852C74.6396 35.7191 65.5221 4.72115 60.8411 16.5452C56.1602 28.3693 55.0195 38.9832 36.9011 47.1452C18.7828 55.3073 -0.169352 27.3262 0.00114184 39.5852C0.114804 47.7579 2.70187 130.742 33.4811 174.225C54.0007 203.214 96.621 232.448 112.681 228.945C128.741 225.442 142.408 187.039 148.681 132.465" sodipodi:nodetypes="cszzzzzzc"/><path id="shape11" transform="matrix(0.658142034103578 0.0553224042796328 -0.0553224042796328 0.658142034103576 546.601131738219 293.387703916004)" fill="#e7dbc5" fill-rule="evenodd" stroke="#e7dbc5" stroke-width="10.1592" stroke-linecap="square" stroke-linejoin="bevel" d="M0 33.3995C1.8648 31.5347 7.99345 37.7195 10.08 37.7195C57.0079 37.7195 33.5033 23.1278 57.6 11.0795C61.2205 9.26921 80.4064 18.2795 87.84 18.2795C99.9445 18.2795 112.83 21.5791 117.36 12.5195C117.801 11.6366 125.202 -2.11473 126 0.27947C131.268 16.0825 130.716 42.5796 133.92 58.5995C134.965 63.8249 136.08 74.4395 136.08 74.4395C136.08 74.4395 136.08 69.6395 136.08 67.2395C136.08 47.8128 131.76 33.2039 131.76 14.6795C131.76 14.2492 131.93 13.2395 131.04 13.2395C126.713 13.2395 129.825 22.3296 131.76 26.1995C137.292 37.263 130.848 54.6159 136.08 65.0795C143.31 79.5399 128.274 146.097 123.84 159.399C119.585 172.163 107.395 187.249 119.52 162.999C123.847 154.346 131.04 148.298 131.04 138.519C131.04 133.047 131.49 118.81 135.36 122.679C137.372 124.692 120.925 151.619 120.24 154.359C115.161 174.677 116.574 195.073 97.2 204.759C92.2853 207.217 83.2062 197.144 79.92 194.679C69.4521 186.829 55.8402 182.84 48.24 175.239C18.6167 145.616 1.44 94.7569 1.44 45.6395" sodipodi:nodetypes="cccccccccccccccccccccc"/><path id="shape02" transform="matrix(0.658142034103578 0.0553224042796328 -0.0553224042796328 0.658142034103576 542.148347245317 283.902818451665)" fill="url(#gradient5)" stroke="#000000" stroke-width="16.1352" stroke-linecap="square" stroke-linejoin="bevel" d="M148.681 132.465C158.533 58.0183 141.613 7.85825 140.041 1.42524C138.071 -6.64057 127.683 21.8514 101.161 28.7852C74.6396 35.7191 65.5221 4.72115 60.8411 16.5452C56.1602 28.3693 55.0195 38.9832 36.9011 47.1452C18.7828 55.3073 -0.169352 27.3262 0.00114184 39.5852C0.114804 47.7579 2.70187 130.742 33.4811 174.225C54.0007 203.214 98.9197 237.854 105.868 234.18C112.817 230.506 142.408 187.039 148.681 132.465" sodipodi:nodetypes="cszzzzzzc"/><path id="shape03" transform="matrix(0.658142034103578 0.0553224042796328 -0.0553224042796328 0.658142034103576 596.361850197884 322.229473575605)" fill="none" stroke="#000000" stroke-width="9.3384" stroke-linecap="square" stroke-linejoin="bevel" d="M37.1848 13.4748C42.2481 19.6049 25.1127 -3.70693 11.2648 0.51482C-3.73977 5.08916 0.64012 30.954 0.464768 24.2748" sodipodi:nodetypes="csc"/><path id="shape111" transform="matrix(0.658142034103578 0.0553224042796328 -0.0553224042796328 0.658142034103576 553.599681771986 328.604523202745)" fill="none" stroke="#000000" stroke-width="9.3384" stroke-linecap="square" stroke-linejoin="bevel" d="M33.9344 15.713C39.0025 23.052 24.0134 -4.31342 10.1744 0.593046C-2.9989 5.26353 0.351117 36.0646 0.454452 28.673" sodipodi:nodetypes="csc"/><path id="shape21" transform="matrix(0.658142034103578 0.0553224042796328 -0.0553224042796328 0.658142034103576 564.218118573356 376.17957695458)" fill="none" stroke="#000000" stroke-width="9.3384" stroke-linecap="square" stroke-linejoin="bevel" d="M0 18.72C22.5016 22.9518 36.9016 24.3918 43.2 23.04C49.4984 21.6882 61.9784 14.0082 80.64 0C70.3501 28.4054 60.0301 44.0054 49.68 46.8C39.3299 49.5946 16.6499 42.7546 1.08 19.8" sodipodi:nodetypes="czczc"/><path id="shape3" transform="matrix(0.658142034103578 0.0553224042796328 -0.0553224042796328 0.658142034103576 506.622247676192 348.727927006358)" fill="none" stroke="#000000" stroke-width="9.3384" stroke-linecap="square" stroke-linejoin="bevel" d="M0.200362 8.01359C-1.58687 3.58226 8.85312 30.5823 20.7204 28.5336C32.5876 26.4849 37.5351 -4.0551 36.9204 0.453587" sodipodi:nodetypes="czc"/><path id="shape4" transform="matrix(1.26275389712293 0 0 1.26275389712293 520.382311424413 406.483977089108)" fill="none" stroke="#000000" stroke-width="3.3768" stroke-linecap="square" stroke-linejoin="bevel" d="M0.282116 16.231C-1.38297 19.8993 4.53131 1.03153 12.5221 0.0309632C19.5528 -0.849378 26.1676 17.3641 24.4021 13.711" sodipodi:nodetypes="csc"/><path id="shape04" transform="matrix(-0.80208428497142 -0.150653839644249 0.150653839644249 -0.80208428497142 199.185375460375 507.34766760854)" fill="#ad0700" fill-rule="evenodd" stroke="#ad0700" stroke-width="9.3384" stroke-linecap="square" stroke-linejoin="bevel" d="M11.34 8.41456C19.2698 8.41456 53.872 54.9826 65.88 42.9746C72.9395 35.9151 100.268 -11.1969 113.94 2.47456C114.566 3.1001 113.925 7.88978 113.4 8.41456C105.957 15.8578 73.0784 46.0314 79.38 58.6346C83.513 66.9006 127.364 88.1789 118.26 101.835C108.586 116.346 81.0049 70.3329 61.02 76.9946C59.1419 77.6206 59.6631 80.7884 58.86 82.3946C56.589 86.9365 28.1299 124.074 21.6 111.015C12.5403 92.8952 54.4925 73.6596 46.44 57.5546C41.0854 46.8453 0 39.2352 0 23.5346" sodipodi:nodetypes="ccccccccccc"/><path id="shape012" transform="matrix(-1.14498221001205 -1.23301252063637 1.23301252063637 -1.14498221001205 152.624541526235 541.028770523072)" fill="none" stroke="#000000" stroke-width="7.8264" stroke-linecap="square" stroke-linejoin="bevel" d="M30.6755 32.1258C30.9486 17.8591 30.9862 8.53318 30.7884 4.14799C30.6883 1.92885 44.9247 -3.2842 45.7021 2.97989C46.2057 7.03835 45.9285 16.8691 44.8704 32.4721C58.4972 31.9504 67.3284 31.8685 71.3642 32.2265C73.5474 32.4201 78.5517 46.1831 72.4646 46.9512C68.2337 47.4851 58.8777 47.087 44.3968 45.7569C45.4723 58.8738 45.9696 67.2601 45.8888 70.9158C45.8418 73.0426 31.6225 78.0092 31.0478 71.5131C30.7008 67.591 30.4807 58.9629 30.3876 45.6286C15.4345 47.2902 6.2558 47.809 2.85136 47.185C0.76255 46.8021 -3.03624 32.118 4.363 31.1429C8.44355 30.6052 17.2144 30.9328 30.6755 32.1258" sodipodi:nodetypes="csscsscsscssc"/><path id="shape12" transform="matrix(-1.05542341493493 -0.198238006765159 0.19823800676516 -1.05542341493493 231.10594564799 454.781056334425)" fill="none" stroke="#000000" stroke-width="7.8264" stroke-linecap="square" stroke-linejoin="miter" stroke-miterlimit="2" d="M24.9428 0.437364C31.3449 -2.88354 -2.49922 13.8454 0.147909 12.3404" sodipodi:nodetypes="cc"/><path id="shape22" transform="matrix(-1.05542341493493 -0.198238006765159 0.19823800676516 -1.05542341493493 261.995543880085 435.571231743018)" fill="none" stroke="#000000" stroke-width="7.8264" stroke-linecap="square" stroke-linejoin="miter" stroke-miterlimit="2" d="M14.6517 0.778948C17.8217 -5.75558 -2.04275 31.09 0.172942 26.9544" sodipodi:nodetypes="cc"/><path id="shape31" transform="matrix(-1.05542341493493 -0.198238006765159 0.19823800676516 -1.05542341493493 268.30387147765 386.248203241963)" fill="none" stroke="#000000" stroke-width="7.8264" stroke-linecap="square" stroke-linejoin="miter" stroke-miterlimit="2" d="M0.215364 0.650318C-1.66029 -5.0742 9.3505 28.9324 8.69969 26.9144" sodipodi:nodetypes="cc"/><path id="shape41" transform="matrix(-1.05542341493493 -0.198238006765159 0.19823800676516 -1.05542341493493 257.060547477501 339.43891113956)" fill="none" stroke="#000000" stroke-width="7.8264" stroke-linecap="square" stroke-linejoin="miter" stroke-miterlimit="2" d="M0.5039 0.741434C-3.68799 -4.96598 19.6919 24.2147 18.3062 22.1967" sodipodi:nodetypes="cc"/><path id="shape5" transform="matrix(-1.05542341493493 -0.198238006765159 0.19823800676516 -1.05542341493493 236.01193568193 296.337760683438)" fill="none" stroke="#000000" stroke-width="7.8264" stroke-linecap="square" stroke-linejoin="miter" stroke-miterlimit="2" d="M0.293242 0.911754C-1.16122 -3.25927 2.79485 6.88067 12.1614 31.3316" sodipodi:nodetypes="cc"/><path id="shape05" transform="matrix(1.26275389712293 0 0 1.26275389712293 225.936049580263 246.506913069221)" fill="none" stroke="url(#gradient6)" stroke-width="12.96" stroke-linecap="square" stroke-linejoin="bevel" d="M0 3.96L16.56 0" sodipodi:nodetypes="cc"/>
</svg>
